<?xml version="1.0" standalone="no"?>
<!DOCTYPE svg PUBLIC "-//W3C//DTD SVG 20010904//EN"
 "http://www.w3.org/TR/2001/REC-SVG-20010904/DTD/svg10.dtd">
<svg version="1.0" xmlns="http://www.w3.org/2000/svg"
 width="500.000000pt" height="500.000000pt" viewBox="0 0 500.000000 500.000000"
 preserveAspectRatio="xMidYMid meet">
<metadata>
Created by potrace 1.16, written by Peter Selinger 2001-2019
</metadata>
<g transform="translate(0.000000,500.000000) scale(0.100000,-0.100000)"
fill="#000000" stroke="none">
<path d="M1672 3405 c-236 -52 -438 -256 -514 -522 -32 -112 -32 -314 0 -426
109 -380 454 -605 794 -518 128 33 243 102 328 198 81 92 125 181 53 110 -127
-128 -299 -161 -450 -87 -133 65 -239 210 -299 405 -26 84 -28 103 -28 265 0
152 3 186 23 260 44 166 124 289 199 310 74 19 227 -23 252 -69 15 -30 12 -83
-8 -112 -9 -15 -35 -52 -56 -83 -33 -47 -41 -68 -44 -117 -14 -190 197 -312
355 -205 70 48 113 145 98 223 -21 114 -130 235 -277 307 -146 72 -283 92
-426 61z"/>
<path d="M3124 2990 c-85 -18 -141 -93 -131 -177 5 -49 27 -85 71 -117 23 -18
42 -21 123 -21 105 0 122 -9 124 -69 1 -17 6 3 10 44 17 148 -10 268 -72 313
-33 24 -86 35 -125 27z"/>
<path d="M2695 2955 c-44 -7 -119 -18 -167 -25 -49 -6 -88 -16 -88 -21 0 -5 6
-9 14 -9 8 0 26 -14 40 -31 l26 -31 0 -311 c0 -172 5 -343 10 -380 18 -121 73
-195 169 -223 156 -46 350 65 479 276 29 46 52 89 52 94 0 6 -18 -21 -41 -59
-100 -172 -246 -295 -349 -295 -51 0 -104 37 -108 75 -3 30 7 48 73 131 l30
37 3 380 c2 276 0 383 -9 393 -13 16 -26 16 -134 -1z"/>
</g>
</svg>
